<?xml version="1.0" encoding="UTF-8"?>
<svg width="36px" height="25px" viewBox="0 0 36 25" version="1.1" xmlns="http://www.w3.org/2000/svg" xmlns:xlink="http://www.w3.org/1999/xlink">
    <!-- Generator: Sketch 50.2 (55047) - http://www.bohemiancoding.com/sketch -->
    <title>Shape</title>
    <desc>Created with Sketch.</desc>
    <defs></defs>
    <g id="Page-1" stroke="none" stroke-width="1" fill="none" fill-rule="evenodd">
        <g id="运营长/班主任-绩效首页2" transform="translate(-357.000000, -847.000000)" fill="#FFFFFF" fill-rule="nonzero">
            <g id="Group-12" transform="translate(30.000000, 838.000000)">
                <g id="Group-2">
                    <g id="下拉" transform="translate(221.500000, 20.000000) scale(1, -1) translate(-221.500000, -20.000000) translate(80.000000, 0.000000)">
                        <path d="M281.961569,11.9019017 C282.977316,10.9095745 283.278147,9.42982456 282.729573,8.13319435 C282.180999,6.84009896 280.889589,6 279.460151,6 L250.538754,6 C249.109237,6 247.817316,6.84355695 247.269057,8.13319435 C247.088558,8.56186959 247,9.01152329 247,9.45760373 C247,10.3564885 247.360879,11.2415413 248.036785,11.902017 L262.499548,29.9870016 C263.1646,30.6367192 264.063554,31 265.001438,31 C265.93893,31 266.841619,30.6336454 267.50325,29.9870016 L281.961569,11.9019017 Z" id="Shape"></path>
                    </g>
                </g>
            </g>
        </g>
    </g>
</svg>