<?xml version="1.0" encoding="UTF-8"?>
<svg width="26px" height="26px" viewBox="0 0 26 26" version="1.1" xmlns="http://www.w3.org/2000/svg" xmlns:xlink="http://www.w3.org/1999/xlink">
    <!-- Generator: Sketch 50.2 (55047) - http://www.bohemiancoding.com/sketch -->
    <title>饼图</title>
    <desc>Created with Sketch.</desc>
    <defs></defs>
    <g id="Page-1" stroke="none" stroke-width="1" fill="none" fill-rule="evenodd">
        <g id="boss-每月绩效-家族分档" transform="translate(-536.000000, -433.000000)" fill="#DADADA" fill-rule="nonzero">
            <g id="切换" transform="translate(145.000000, 414.000000)">
                <g id="Group-4">
                    <g id="Group-8" transform="translate(165.000000, 14.000000)">
                        <g id="饼图" transform="translate(226.000000, 5.000000)">
                            <path d="M24.8443034,13.0302572 C24.8443034,6.51396484 19.5603027,1.22996419 13.0440104,1.22996419 C9.78448893,1.22996419 6.83304036,2.55302734 4.69853516,4.68753255 L13.0880208,13.0605143 L24.8443034,13.0302572" id="Shape"></path>
                            <path d="M13.0880208,13.6133952 C12.9422363,13.6133952 12.8019531,13.5556315 12.700179,13.4538574 L4.30794271,5.078125 C4.20341797,4.97635091 4.1456543,4.83606771 4.1456543,4.6902832 C4.1456543,4.5444987 4.20341797,4.40421549 4.30794271,4.29969076 C5.44121094,3.16367187 6.76427409,2.27246094 8.23312174,1.6508138 C9.75698242,1.00716146 11.3743652,0.679833984 13.0412598,0.679833984 C14.7081543,0.679833984 16.3255371,1.00716146 17.8493978,1.6508138 C19.3209961,2.27246094 20.6413086,3.16367187 21.7745768,4.2969401 C22.9078451,5.43020833 23.799056,6.75052083 24.4207031,8.22211914 C25.0643555,9.74597982 25.3916829,11.3633626 25.3916829,13.0302572 C25.3916829,13.3328288 25.146875,13.5803874 24.8443034,13.5803874 L13.0880208,13.6133952 Z M5.48522135,4.69853516 L13.3163249,12.5131348 L24.2831706,12.4828776 C23.9943522,6.5332194 19.0624349,1.7800944 13.0440104,1.7800944 C10.2218424,1.7800944 7.55921224,2.81158854 5.48522135,4.69853516 Z" id="Shape"></path>
                            <path d="M24.8443034,13.0165039 L13.0660156,13.063265 L5.44121094,21.9368652 C7.49869792,23.7027832 10.1695801,24.7672852 13.0935221,24.7672852 C19.5823079,24.7700358 24.8443034,19.5080404 24.8443034,13.0165039 Z" id="Shape"></path>
                            <path d="M13.0907715,25.320166 C11.5944173,25.320166 10.1338216,25.0533529 8.74474284,24.5307292 C7.40517578,24.0246094 6.17013346,23.2929362 5.08087565,22.3549642 C4.97084961,22.2586914 4.90208333,22.1239095 4.89108073,21.978125 C4.88007813,21.8323405 4.92683919,21.6893066 5.02311198,21.5792806 L12.6506673,12.7056803 C12.7551921,12.5846517 12.9064779,12.5158854 13.0660156,12.5131348 L24.8443034,12.4663737 L24.847054,12.4663737 C24.9928385,12.4663737 25.1331217,12.5241374 25.2348958,12.6259115 C25.3394206,12.7304362 25.3971842,12.8707194 25.3971842,13.0165039 C25.3971842,14.6778971 25.0726074,16.2897786 24.4289551,17.8053874 C23.8100586,19.2714844 22.9215983,20.5862956 21.7910807,21.7168132 C20.6605632,22.8473307 19.345752,23.7330404 17.8796549,24.3546875 C16.3640462,24.9928385 14.7521647,25.320166 13.0907715,25.320166 Z M6.22514648,21.868099 C8.18361003,23.3864583 10.6014323,24.2199056 13.0935221,24.2199056 C19.0871908,24.2199056 23.9943522,19.4915365 24.2831706,13.5693848 L13.3218262,13.6133952 L6.22514648,21.868099 Z" id="Shape"></path>
                            <path d="M3.58452148,20.567041 L3.56801758,20.567041 C3.40572917,20.5615397 3.25444336,20.4872721 3.15541992,20.3607422 C2.34672852,19.3540039 1.71682943,18.2289876 1.28222656,17.0159505 C0.833870443,15.7616536 0.605566406,14.4440918 0.605566406,13.0990234 C0.605566406,10.7114583 1.32623698,8.41466471 2.68780924,6.46170247 C2.77858073,6.32967122 2.92436523,6.24715169 3.08115234,6.22789714 C3.2406901,6.21139323 3.39747721,6.2636556 3.51575521,6.37368164 L10.2163411,12.6699219 C10.4336426,12.8734701 10.4501465,13.2173014 10.249349,13.4401042 L3.99161784,20.385498 C3.88984375,20.503776 3.73855794,20.567041 3.58452148,20.567041 Z M3.23793945,7.62797852 C2.23120117,9.27286784 1.70307617,11.1515625 1.70307617,13.0990234 C1.70307617,15.2995443 2.36323242,17.3790365 3.62027995,19.1532064 L9.06931966,13.1017741 L3.23793945,7.62797852 Z" id="Shape"></path>
                            <path d="M7.48219401,10.8077311 L7.48219401,15.6681315" id="Shape"></path>
                            <polygon id="Shape" points="6.9320638 10.8077311 8.03232422 10.8077311 8.03232422 15.6708822 6.9320638 15.6708822"></polygon>
                            <path d="M5.90056966,9.41590169 L5.90056966,17.4478027" id="Shape"></path>
                            <polygon id="Shape" points="5.35043945 9.41590169 6.45069987 9.41590169 6.45069987 17.4478027 5.35043945 17.4478027"></polygon>
                            <path d="M4.32169596,7.92229818 L4.32169596,19.1889648" id="Shape"></path>
                            <polygon id="Shape" points="3.77156576 7.92229818 4.87182617 7.92229818 4.87182617 19.1917155 3.77156576 19.1917155"></polygon>
                            <path d="M2.74282227,7.38592122 L2.74282227,18.7873698" id="Shape"></path>
                            <polygon id="Shape" points="2.19269206 7.38592122 3.29295247 7.38592122 3.29295247 18.7846191 2.19269206 18.7846191"></polygon>
                        </g>
                    </g>
                </g>
            </g>
        </g>
    </g>
</svg>