<?xml version="1.0" encoding="UTF-8"?>
<svg width="44px" height="44px" viewBox="0 0 44 44" version="1.1" xmlns="http://www.w3.org/2000/svg" xmlns:xlink="http://www.w3.org/1999/xlink">
    <!-- Generator: Sketch 50.2 (55047) - http://www.bohemiancoding.com/sketch -->
    <title>计算</title>
    <desc>Created with Sketch.</desc>
    <defs></defs>
    <g id="Page-1" stroke="none" stroke-width="1" fill="none" fill-rule="evenodd">
        <g id="boss-家族详情页" transform="translate(-680.000000, -1083.000000)" fill="#FDBF41" fill-rule="nonzero">
            <g id="回到顶部-copy" transform="translate(666.000000, 1068.000000)">
                <g id="计算" transform="translate(14.000000, 15.000000)">
                    <path d="M18.2352744,36 C17.7627119,36 17.3196845,35.8156836 16.987414,35.4839142 L14.499077,32.9993298 L12.0107401,35.4839142 C11.6784695,35.8156836 11.2354422,36 10.7628797,36 C10.2903172,36 9.84728981,35.8156836 9.5150193,35.4839142 C8.8283269,34.7982574 8.8283269,33.6776139 9.5150193,32.9845845 L12.0033563,30.5 L9.5150193,28.0154155 C8.8283269,27.3297587 8.8283269,26.2091153 9.5150193,25.5160858 C9.84728981,25.1843164 10.2903172,25 10.7628797,25 C11.2354422,25 11.6784695,25.1843164 12.0107401,25.5160858 L14.499077,28.0006702 L16.987414,25.5160858 C17.3196845,25.1843164 17.7627119,25 18.2352744,25 C18.7078369,25 19.1508642,25.1843164 19.4831348,25.5160858 C19.8154053,25.8478552 20,26.2902145 20,26.7620643 C20,27.2339142 19.8154053,27.6762735 19.4831348,28.0080429 L16.9947978,30.4926273 L19.4831348,32.9772118 C19.8154053,33.3089812 20,33.7513405 20,34.2231903 C20,34.6950402 19.8154053,35.1373995 19.4831348,35.4691689 C19.1508642,35.8156836 18.7078369,36 18.2352744,36 Z" id="Shape"></path>
                    <path d="M12.2389022,17.2006389 L12.2389022,14.7490465 L9.78581378,14.7490465 C8.9290635,14.7490465 8.11624913,14.061137 8.013732,13.2122274 C7.88192427,12.1437722 8.71670659,11.2363171 9.75652318,11.2363171 L12.2462248,11.2363171 L12.2462248,8.78472471 C12.2462248,7.92849691 12.9345541,7.11617824 13.7839818,7.01372363 C14.853089,6.88199628 15.7610978,7.71626951 15.7610978,8.75545196 L15.7610978,11.2436353 L18.2141862,11.2436353 C19.0709365,11.2436353 19.8837509,11.9315448 19.986268,12.7804544 C20.1180757,13.8489096 19.2832934,14.7563647 18.2434768,14.7563647 L15.7537752,14.7563647 L15.7537752,17.244548 C15.7537752,18.2837305 14.8457663,19.1180037 13.7766591,18.9862764 C12.9272315,18.8765036 12.2389022,18.0568667 12.2389022,17.2006389 Z" id="Shape"></path>
                    <path d="M26.7565232,15 C25.7167066,15 24.8819243,13.9666667 25.013732,12.75 C25.1162491,11.7833333 25.9363862,11 26.7858138,11 L35.2141862,11 C36.0709365,11 36.8837509,11.7833333 36.986268,12.75 C37.1180757,13.9666667 36.2832934,15 35.2434768,15 L26.7565232,15 Z" id="Shape"></path>
                    <path d="M26.7565232,28.5436242 C25.7167066,28.5436242 24.8819243,27.6281879 25.013732,26.5503356 C25.1162491,25.6939597 25.9363862,25 26.7858138,25 L35.2141862,25 C36.0709365,25 36.8837509,25.6939597 36.986268,26.5503356 C37.1180757,27.6281879 36.2832934,28.5436242 35.2434768,28.5436242 L26.7565232,28.5436242 Z M26.7565232,36 C25.7167066,36 24.8819243,35.0845638 25.013732,34.0067114 C25.1162491,33.1503356 25.9363862,32.4563758 26.7858138,32.4563758 L35.2141862,32.4563758 C36.0709365,32.4563758 36.8837509,33.1503356 36.986268,34.0067114 C37.1180757,35.0845638 36.2832934,36 35.2434768,36 L26.7565232,36 Z" id="Shape"></path>
                    <path d="M43.7816356,3.28190385 C43.7816356,3.27487622 43.7816356,3.27487622 43.7746058,3.26784859 C43.1419232,1.31416707 41.3282331,0 39.2684998,0 L4.73808966,0 C2.1300314,0 0,2.12234467 0,4.73662354 L0,39.2633765 C0,41.3295001 1.32160364,43.142629 3.2899495,43.7751158 C3.35321776,43.7961987 3.41648602,43.8172816 3.47975428,43.8313368 C3.88748306,43.9437789 4.30927146,44 4.73105985,44 L39.2684998,44 C39.8027651,44 40.3300006,43.9086408 40.822087,43.7399776 C41.1595177,43.6205079 41.4899187,43.4659 41.7922003,43.2691263 C42.3897339,42.8896342 42.9029098,42.3766172 43.2754895,41.7792685 C43.5637116,41.3154448 43.7746058,40.8094554 43.8870827,40.282383 C43.9573808,39.9520843 43.9995596,39.6077304 43.9995596,39.2633765 L43.9995596,4.73662354 C44.0065894,4.23766172 43.9292615,3.74572752 43.7816356,3.28190385 Z M4,38.6819602 L4,5.32477615 C4,4.59105397 4.59784865,4 5.32477826,4 L38.6752217,4 C39.4089451,4 40,4.5978477 40,5.32477615 L40,38.6751665 C40,39.4088887 39.4021513,39.9999427 38.6752217,39.9999427 L5.32477826,39.9999427 C4.59784865,40.0067364 4,39.4088887 4,38.6819602 Z" id="Shape"></path>
                </g>
            </g>
        </g>
    </g>
</svg>