<?xml version="1.0" encoding="UTF-8"?>
<svg width="48px" height="38px" viewBox="0 0 48 38" version="1.1" xmlns="http://www.w3.org/2000/svg" xmlns:xlink="http://www.w3.org/1999/xlink">
    <!-- Generator: Sketch 50.2 (55047) - http://www.bohemiancoding.com/sketch -->
    <title>仪表盘-2</title>
    <desc>Created with Sketch.</desc>
    <defs></defs>
    <g id="Page-1" stroke="none" stroke-width="1" fill="none" fill-rule="evenodd">
        <g id="boss-家族详情页" transform="translate(-679.000000, -1002.000000)" fill="#FDBF41" fill-rule="nonzero">
            <g id="回到顶部" transform="translate(666.000000, 984.000000)">
                <g id="仪表盘-2" transform="translate(13.000000, 18.000000)">
                    <path d="M26.4020227,9.5 C26.4020227,8.18708509 25.3241526,7.12643331 24.0028925,7.12643331 C22.6758373,7.12643331 21.6037622,8.18708509 21.6037622,9.5 C21.6037622,10.8129149 22.6758373,11.8735667 24.0028925,11.8735667 C25.3299476,11.8735667 26.4020227,10.8129149 26.4020227,9.5 Z M40.8083942,23.7471334 C40.8083942,22.4342185 39.7363191,21.3735667 38.409264,21.3735667 C37.0822088,21.3735667 36.0101337,22.4342185 36.0101337,23.7471334 C36.0101337,25.0600483 37.0822088,26.1207001 38.409264,26.1207001 C39.7305241,26.1264333 40.8083942,25.0600483 40.8083942,23.7471334 Z M9.60231599,21.3735667 C8.27526085,21.3735667 7.20318574,22.4342185 7.20318574,23.7471334 C7.20318574,25.0600483 8.27526085,26.1207001 9.60231599,26.1207001 C10.9293711,26.1207001 12.0014462,25.054315 12.0014462,23.7471334 C12.0014462,22.4399517 10.9235761,21.3735667 9.60231599,21.3735667 Z M12.1173462,11.993965 C11.1785562,12.922752 11.1785562,14.4248642 12.1173462,15.3536512 C13.0561363,16.2824381 14.5744265,16.2824381 15.5132166,15.3536512 C16.4520067,14.4248642 16.4520067,12.922752 15.5132166,11.993965 C14.5802215,11.065178 13.0561363,11.0709113 12.1173462,11.993965 Z M35.8826437,11.993965 C34.9438536,11.065178 33.4255634,11.065178 32.4867733,11.993965 C31.5479832,12.922752 31.5479832,14.4248642 32.4867733,15.3536512 C33.4255634,16.2824381 34.9438536,16.2824381 35.8826437,15.3536512 C36.8214338,14.4248642 36.8214338,12.922752 35.8826437,11.993965 Z M40.9764492,6.96016898 C36.4447587,2.47103199 30.4179581,0 24.0028925,0 C17.5878268,0 11.5610262,2.47103199 7.02933572,6.96016898 C2.49764526,11.4435727 0,17.411889 0,23.7585999 C0,28.9701267 1.70373018,33.9064575 4.8156455,38 L8.24049085,34.6059143 C6.00941562,31.4411587 4.79826049,27.6973446 4.79826049,23.7585999 C4.79826049,18.6789378 6.7975357,13.9088715 10.4194111,10.3198552 C14.0470814,6.73083887 18.8685219,4.75286663 23.9970975,4.75286663 C29.125673,4.75286663 33.9471135,6.73083887 37.5747839,10.3198552 C41.2024542,13.9088715 43.2017294,18.6846711 43.2017294,23.7585999 C43.2017294,27.6973446 41.9847793,31.4411587 39.7537041,34.6059143 L43.1843444,38 C46.2962598,33.9121907 47.9999899,28.9701267 47.9999899,23.7585999 C48.0057849,17.411889 45.5081397,11.4435727 40.9764492,6.96016898 Z M20.8851821,27.9037417 C19.894237,29.6065178 20.4795321,31.7851539 22.2006473,32.7712734 C23.9217625,33.7573929 26.1238627,33.1726011 27.1206028,31.469825 C28.1173429,29.7670489 30.6033981,18.3750754 30.6033981,18.3750754 C30.6033981,18.3750754 21.8819223,26.2009656 20.8851821,27.9037417 Z" id="Shape"></path>
                </g>
            </g>
        </g>
    </g>
</svg>