<?xml version="1.0" encoding="UTF-8"?>
<svg width="31px" height="31px" viewBox="0 0 31 31" version="1.1" xmlns="http://www.w3.org/2000/svg" xmlns:xlink="http://www.w3.org/1999/xlink">
    <!-- Generator: Sketch 56.3 (81716) - https://sketch.com -->
    <title>Group 15</title>
    <desc>Created with Sketch.</desc>
    <g id="页面1" stroke="none" stroke-width="1" fill="none" fill-rule="evenodd">
        <g id="家族长-绩效首页2" transform="translate(-483.000000, -180.000000)" fill="#FFFFFF" fill-rule="nonzero">
            <g id="切换" transform="translate(60.000000, 175.000000)">
                <g id="周均数据" transform="translate(423.000000, 5.000000)">
                    <g id="Group-15">
                        <path d="M24.4343891,29.2682927 L2.0361991,29.2682927 C0.912217195,29.2682927 0,28.3605253 0,27.2420263 L0,4.95309568 C0,3.83358188 0.912217195,2.92682927 2.0361991,2.92682927 L4.07239819,2.92682927 L4.07239819,3.93996248 C4.07239819,5.61872582 5.4397075,6.9793621 7.12669683,6.9793621 C8.81266968,6.9793621 10.1809955,5.61872259 10.1809955,3.93996248 L10.1809955,2.92682927 L16.2895928,2.92682927 L16.2895928,3.93996248 C16.2895928,5.61872582 17.6579186,6.9793621 19.3438914,6.9793621 C21.0298643,6.9793621 22.39819,5.61872259 22.39819,3.93996248 L22.39819,2.92682927 L24.4343891,2.92682927 C25.558371,2.92682927 26.4705882,3.8335851 26.4705882,4.95309568 L26.4705882,27.2420263 C26.4705882,28.3605253 25.558371,29.2682927 24.4343891,29.2682927 Z M24.2647059,10.2439024 L2.20588235,10.2439024 L2.20588235,27.0731707 L24.2647059,27.0731707 L24.2647059,10.2439024 Z M7.35294118,15.3658537 L4.41176471,15.3658537 L4.41176471,12.4390244 L7.35294118,12.4390244 L7.35294118,15.3658537 Z M7.35294118,19.7560976 L4.41176471,19.7560976 L4.41176471,16.8292683 L7.35294118,16.8292683 L7.35294118,19.7560976 Z M7.35294118,24.8780488 L4.41176471,24.8780488 L4.41176471,21.9512195 L7.35294118,21.9512195 L7.35294118,24.8780488 Z M11.7647059,15.3658537 L8.82352941,15.3658537 L8.82352941,12.4390244 L11.7647059,12.4390244 L11.7647059,15.3658537 Z M11.7647059,19.7560976 L8.82352941,19.7560976 L8.82352941,16.8292683 L11.7647059,16.8292683 L11.7647059,19.7560976 Z M17.0588235,15.2195122 L14.1176471,15.2195122 L14.1176471,12.2926829 L17.0588235,12.2926829 L17.0588235,15.2195122 Z M22.3529412,15.2195122 L19.4117647,15.2195122 L19.4117647,12.2926829 L22.3529412,12.2926829 L22.3529412,15.2195122 Z M19.4852941,5.85365854 C18.4695509,5.85365854 17.6470588,4.99317119 17.6470588,3.93268239 L17.6470588,1.92097614 C17.6470588,0.859513293 18.4695509,0 19.4852941,0 C20.5010373,0 21.3235294,0.859513293 21.3235294,1.92097614 L21.3235294,3.93268239 C21.3235294,4.99317119 20.5010373,5.85365854 19.4852941,5.85365854 Z M6.98529412,5.85365854 C5.96955091,5.85365854 5.14705882,4.99317119 5.14705882,3.93268239 L5.14705882,1.92097614 C5.14705882,0.859513293 5.96955091,0 6.98529412,0 C8.00103733,0 8.82352941,0.859513293 8.82352941,1.92097614 L8.82352941,3.93268239 C8.82352941,4.99317119 8.00010523,5.85365854 6.98529412,5.85365854 Z" id="Shape"></path>
                        <g id="放大镜" transform="translate(22.161426, 22.962199) rotate(-1.000000) translate(-22.161426, -22.962199) translate(15.002336, 15.803108)">
                            <path d="M11.3562322,8.60481158 C11.428003,8.67282847 11.494167,8.73572226 11.5316566,8.77182476 C11.5924805,8.83039826 11.6492408,8.88578288 11.7034926,8.93959081 C12.4066975,9.63651961 13.1167421,10.3434586 14.093637,11.3184125 C14.8946401,12.1172466 14.9334503,13.3015496 14.1592599,14.080379 C13.3793064,14.8662922 12.1824709,14.8285335 11.3707392,14.0216335 C11.0878529,13.7400642 11.0878529,13.7400642 10.8047174,13.4584547 C10.6863064,13.3406913 10.6863064,13.3406913 10.5678708,13.222904 C9.67623201,12.3361273 9.16730599,11.8286321 8.64416685,11.3030529 C4.90796491,13.1936715 0.477454732,11.1377044 -0.45123967,7.01971545 C-1.22035946,3.60970072 1.06932347,0.188815671 4.56174188,-0.486165756 C8.16237281,-1.18112048 11.6428372,1.38314328 12.0294886,5.01594359 C12.1643615,6.28416587 11.9385124,7.48340954 11.3562322,8.60481156 Z M5.72229299,9.05851825 L5.72247928,9.05851684 C7.61377362,9.04446402 9.11715705,7.54642316 9.10865683,5.69325078 C9.10008856,3.84252781 7.56755199,2.34245893 5.69613922,2.35719054 C3.85066618,2.37275749 2.36257177,3.89445072 2.37268039,5.76060196 C2.38210241,7.55426065 3.92340225,9.07244303 5.72229299,9.05851825 Z" id="Shape" stroke="#00CCC3" stroke-width="1.2"></path>
                            <path d="M2.64705882,5.26821155 C2.64940575,3.69864852 3.99776008,2.57911991 5.28363737,2.63623624 C5.28679359,2.69643555 5.29310604,2.75825748 5.29310604,2.81926809 C5.29472461,3.00067733 5.29391533,3.18216768 5.29391533,3.3612241 C4.06104637,3.46815495 3.44372169,4.30721319 3.3852911,5.26829268 L2.64705882,5.26821155 Z" id="Shape"></path>
                        </g>
                    </g>
                </g>
            </g>
        </g>
    </g>
</svg>