<?xml version="1.0" encoding="UTF-8"?>
<svg width="45px" height="45px" viewBox="0 0 45 45" version="1.1" xmlns="http://www.w3.org/2000/svg" xmlns:xlink="http://www.w3.org/1999/xlink">
    <!-- Generator: Sketch 50.2 (55047) - http://www.bohemiancoding.com/sketch -->
    <title>Group 15</title>
    <desc>Created with Sketch.</desc>
    <defs></defs>
    <g id="Page-1" stroke="none" stroke-width="1" fill="none" fill-rule="evenodd">
        <g id="院长-每月绩效-家族分档-copy" transform="translate(-676.000000, -253.000000)" fill-rule="nonzero">
            <g id="切换" transform="translate(30.000000, 253.000000)">
                <g id="周均数据" transform="translate(646.000000, 0.000000)">
                    <g id="Group-15">
                        <path d="M35.8371041,42.9268293 L2.98642534,42.9268293 C1.33791855,42.9268293 0,41.5954371 0,39.9549719 L0,7.26454034 C0,5.62258675 1.33791855,4.29268293 2.98642534,4.29268293 L5.97285068,4.29268293 L5.97285068,5.77861163 C5.97285068,8.24079787 7.97823767,10.2363977 10.4524887,10.2363977 C12.9252489,10.2363977 14.9321267,8.24079313 14.9321267,5.77861163 L14.9321267,4.29268293 L23.8914027,4.29268293 L23.8914027,5.77861163 C23.8914027,8.24079787 25.8982805,10.2363977 28.3710407,10.2363977 C30.8438009,10.2363977 32.8506787,8.24079313 32.8506787,5.77861163 L32.8506787,4.29268293 L35.8371041,4.29268293 C37.4856109,4.29268293 38.8235294,5.62259149 38.8235294,7.26454034 L38.8235294,39.9549719 C38.8235294,41.5954371 37.4856109,42.9268293 35.8371041,42.9268293 Z M35.5882353,15.0243902 L3.23529412,15.0243902 L3.23529412,39.7073171 L35.5882353,39.7073171 L35.5882353,15.0243902 Z M10.7843137,22.5365854 L6.47058824,22.5365854 L6.47058824,18.2439024 L10.7843137,18.2439024 L10.7843137,22.5365854 Z M10.7843137,28.9756098 L6.47058824,28.9756098 L6.47058824,24.6829268 L10.7843137,24.6829268 L10.7843137,28.9756098 Z M10.7843137,36.4878049 L6.47058824,36.4878049 L6.47058824,32.195122 L10.7843137,32.195122 L10.7843137,36.4878049 Z M17.254902,22.5365854 L12.9411765,22.5365854 L12.9411765,18.2439024 L17.254902,18.2439024 L17.254902,22.5365854 Z M17.254902,28.9756098 L12.9411765,28.9756098 L12.9411765,24.6829268 L17.254902,24.6829268 L17.254902,28.9756098 Z M25.0196078,22.3219512 L20.7058824,22.3219512 L20.7058824,18.0292683 L25.0196078,18.0292683 L25.0196078,22.3219512 Z M32.7843137,22.3219512 L28.4705882,22.3219512 L28.4705882,18.0292683 L32.7843137,18.0292683 L32.7843137,22.3219512 Z M28.5784314,8.58536585 C27.0886747,8.58536585 25.8823529,7.32331774 25.8823529,5.76793418 L25.8823529,2.81743168 C25.8823529,1.2606195 27.0886747,0 28.5784314,0 C30.0681881,0 31.2745098,1.2606195 31.2745098,2.81743168 L31.2745098,5.76793418 C31.2745098,7.32331774 30.0681881,8.58536585 28.5784314,8.58536585 Z M10.245098,8.58536585 C8.75534133,8.58536585 7.54901961,7.32331774 7.54901961,5.76793418 L7.54901961,2.81743168 C7.54901961,1.2606195 8.75534133,0 10.245098,0 C11.7348547,0 12.9411765,1.2606195 12.9411765,2.81743168 L12.9411765,5.76793418 C12.9411765,7.32331774 11.7334877,8.58536585 10.245098,8.58536585 Z" id="Shape" fill="#52C9C2"></path>
                        <g id="放大镜" transform="translate(32.739141, 33.905519) rotate(-1.000000) translate(-32.739141, -33.905519) translate(22.007434, 23.173812)">
                            <path d="M16.3083376,12.6770237 C16.4642963,12.8245215 16.6379132,12.9890647 16.7188726,13.0670288 C16.807137,13.1520274 16.8894123,13.2323087 16.9680221,13.3102752 C17.9991132,14.3321638 19.0403063,15.368803 20.4729463,16.7985965 C21.5410016,17.8637597 21.5921282,19.4238964 20.5681726,20.4539876 C19.536436,21.4936077 17.9582693,21.4438185 16.8746426,20.366642 C16.6336747,20.1267209 16.4596624,19.9535937 16.0443674,19.5405371 C15.8706932,19.3678127 15.8706932,19.3678127 15.6969917,19.1950621 C14.307595,17.8132417 13.5520453,17.0595862 12.7316053,16.2345848 C7.3766078,19.0845844 0.948019745,16.1611288 -0.388679505,10.233977 C-1.48164643,5.38813451 1.77530302,0.52211156 6.74361799,-0.438117131 C11.8638009,-1.4263593 16.815117,2.22156775 17.3648201,7.38632772 C17.5642418,9.26150978 17.2104275,11.0272556 16.3083376,12.6770237 Z M8.39486374,13.5658184 L8.39505002,13.565817 C11.3223129,13.5440666 13.6525333,11.22211 13.6392976,8.34879311 C13.6260669,5.47886066 11.251312,3.15439936 8.35197575,3.17722275 C5.49043494,3.20136045 3.18428553,5.55960433 3.20002433,8.45037083 C3.21457797,11.2360899 5.60170657,13.5874395 8.39486374,13.5658184 Z" id="Shape" stroke="#EDF0F3" stroke-width="1.2" fill="#52C9C2"></path>
                            <path d="M3.88235294,7.72671027 C3.88579511,5.42468449 5.86338145,3.7827092 7.74933481,3.86647982 C7.75396394,3.95477214 7.76322219,4.0454443 7.76322219,4.13492654 C7.76559609,4.40099341 7.76440915,4.66717927 7.76440915,4.92979535 C5.95620135,5.08662726 5.05079181,6.31724601 4.96509362,7.72682927 L3.88235294,7.72671027 Z" id="Shape" fill="#FFFFFF"></path>
                        </g>
                    </g>
                </g>
            </g>
        </g>
    </g>
</svg>