<?xml version="1.0" encoding="UTF-8"?>
<svg width="22px" height="22px" viewBox="0 0 22 22" version="1.1" xmlns="http://www.w3.org/2000/svg" xmlns:xlink="http://www.w3.org/1999/xlink">
    <!-- Generator: Sketch 50.2 (55047) - http://www.bohemiancoding.com/sketch -->
    <title>问号-fill</title>
    <desc>Created with Sketch.</desc>
    <defs></defs>
    <g id="Page-1" stroke="none" stroke-width="1" fill="none" fill-rule="evenodd">
        <g id="运营长/班主任-绩效首页2" transform="translate(-315.000000, -968.000000)">
            <g id="Group-12" transform="translate(30.000000, 838.000000)">
                <g id="问号-fill" transform="translate(285.000000, 130.000000)">
                    <path d="M11,0 C4.93429838,0 0,4.93429838 0,11 C0,17.0657016 4.93429838,22 11,22 C17.0657016,22 22,17.0657016 22,11 C22,4.93429838 17.0657016,0 11,0 Z M11,18.8658015 C10.3494231,18.8658015 9.82141801,18.3377964 9.82141801,17.6872195 C9.82141801,17.0366425 10.3494231,16.5086375 11,16.5086375 C11.6505769,16.5086375 12.178582,17.0366425 12.178582,17.6872195 C12.178582,18.3377964 11.6505769,18.8658015 11,18.8658015 Z" id="Shape" fill="#DADADA" fill-rule="nonzero"></path>
                    <path d="M13.174869,10.8326569 C12.4913049,11.5154607 11.7857354,12.2210302 11.7857354,12.8550924 L11.7857354,14.1837426 C11.7857354,14.6174746 11.433732,14.969478 11,14.969478 C10.566268,14.969478 10.2142646,14.6174746 10.2142646,14.1837426 L10.2142646,12.8550924 C10.2142646,11.5696508 11.1964022,10.5875132 12.063824,9.7208939 C12.699449,9.08526889 13.3571217,8.42839866 13.3571217,7.90432164 C13.3571217,6.59455144 12.2995488,5.52912245 11,5.52912245 C9.67844569,5.52912245 8.64287826,6.5489777 8.64287826,7.85089179 C8.64287826,8.2846238 8.29087487,8.63658496 7.85714286,8.63658496 C7.42341084,8.63658496 7.07140746,8.28458157 7.07140746,7.85089179 C7.07140746,5.70432164 8.83374739,3.95769388 11,3.95769388 C13.1662526,3.95769388 14.9285925,5.7278899 14.9285925,7.90432164 C14.9285925,9.07969359 14.0368,9.9707259 13.174869,10.8326569 Z" id="Path" fill="#FFFFFF"></path>
                </g>
            </g>
        </g>
    </g>
</svg>