<?xml version="1.0" encoding="UTF-8"?>
<svg width="20px" height="11px" viewBox="0 0 20 11" version="1.1" xmlns="http://www.w3.org/2000/svg" xmlns:xlink="http://www.w3.org/1999/xlink">
    <!-- Generator: Sketch 50.2 (55047) - http://www.bohemiancoding.com/sketch -->
    <title>Group 45</title>
    <desc>Created with Sketch.</desc>
    <defs></defs>
    <g id="Page-1" stroke="none" stroke-width="1" fill="none" fill-rule="evenodd">
        <g id="boss-家族详情页" transform="translate(-681.000000, -754.000000)" fill="#52C9C2" fill-rule="nonzero" stroke="#52C9C2">
            <g id="Group-9" transform="translate(30.000000, 713.000000)">
                <g id="Group-45" transform="translate(652.000000, 42.000000)">
                    <path d="M1.80807175,0.299220779 L9.31587444,7.54701299 C9.72914798,7.94597403 9.72914798,8.59428571 9.31587444,8.99324675 C8.9026009,9.39220779 8.23103139,9.39220779 7.81775785,8.99324675 L0.309955157,1.74545455 C-0.103318386,1.34649351 -0.103318386,0.698181818 0.309955157,0.299220779 C0.7232287,-0.0997402597 1.39479821,-0.0997402597 1.80807175,0.299220779 Z" id="Shape"></path>
                    <path d="M17.1908744,0.299220779 C17.604148,0.698181818 17.604148,1.34649351 17.1908744,1.74545455 L9.68307175,8.99324675 C9.26979821,9.39220779 8.5982287,9.39220779 8.18495516,8.99324675 C7.77168161,8.59428571 7.77168161,7.94597403 8.18495516,7.54701299 L15.6927578,0.299220779 C16.1060314,-0.0997402597 16.7776009,-0.0997402597 17.1908744,0.299220779 Z" id="Shape"></path>
                </g>
            </g>
        </g>
    </g>
</svg>