<?xml version="1.0" encoding="UTF-8"?>
<svg width="16px" height="16px" viewBox="0 0 16 16" version="1.1" xmlns="http://www.w3.org/2000/svg" xmlns:xlink="http://www.w3.org/1999/xlink">
    <!-- Generator: Sketch 50.2 (55047) - http://www.bohemiancoding.com/sketch -->
    <title>Path</title>
    <desc>Created with Sketch.</desc>
    <defs></defs>
    <g id="Page-1" stroke="none" stroke-width="1" fill="none" fill-rule="evenodd">
        <g id="运营长/班主任-绩效首页2" transform="translate(-246.000000, -748.000000)" fill="#52C9C2">
            <g id="Group-7" transform="translate(30.000000, 624.000000)">
                <g id="Group-20" transform="translate(0.000000, 62.000000)">
                    <path d="M231.173851,72.391299 L226.391284,72.391299 L226.391284,77.1738721 C226.391284,78.6957128 225.30431,79.9999294 224,79.9999294 C222.69569,79.9999294 221.608716,78.6956173 221.608716,77.1738721 L221.608716,72.391299 L216.826149,72.391299 C215.30431,72.391299 214,71.3043245 214,70.0000124 C214,68.6957004 215.304406,67.6087259 216.826149,67.6087259 L221.608716,67.6087259 L221.608716,62.8261528 C221.608716,61.3043121 222.69569,60 224,60 C225.30431,60 226.391284,61.3044076 226.391284,62.8261528 L226.391284,67.6087259 L231.173851,67.6087259 C232.69569,67.6087259 234,68.6957004 234,69.9999169 C234,71.3043245 232.695594,72.391299 231.173851,72.391299 Z" id="Path" transform="translate(224.000000, 69.999965) rotate(45.000000) translate(-224.000000, -69.999965) "></path>
                </g>
            </g>
        </g>
    </g>
</svg>