<?xml version="1.0" encoding="UTF-8"?>
<svg width="26px" height="26px" viewBox="0 0 26 26" version="1.1" xmlns="http://www.w3.org/2000/svg" xmlns:xlink="http://www.w3.org/1999/xlink">
    <!-- Generator: Sketch 50.2 (55047) - http://www.bohemiancoding.com/sketch -->
    <title>Path</title>
    <desc>Created with Sketch.</desc>
    <defs></defs>
    <g id="Page-1" stroke="none" stroke-width="1" fill="none" fill-rule="evenodd">
        <g id="boss-每月绩效-绩效占比" transform="translate(-310.000000, -433.000000)" fill="#DADADA">
            <g id="切换" transform="translate(145.000000, 414.000000)">
                <g id="Group-4">
                    <g id="Group-7" transform="translate(42.000000, 14.000000)">
                        <path d="M148.194,29.375 L147.375,29.375 L147.375,19.629875 C147.375,18.71175 146.6405,18 145.735375,18 L142.51625,18 C141.594875,18 140.875,18.729625 140.875,19.629875 L140.875,29.375 L139.25,29.375 L139.25,6.636375 C139.25,5.729625 138.5155,5 137.610375,5 L134.389625,5 C133.469875,5 132.75,5.732875 132.75,6.636375 L132.75,29.375 L131.125,29.375 L131.125,13.1185 C131.125,12.223125 130.3905,11.5 129.485375,11.5 L126.264625,11.5 C125.344875,11.5 124.625,12.22475 124.625,13.1185 L124.625,29.375 L123.806,29.375 C123.36725,29.375 123,29.739 123,30.1875 C123,30.623 123.36075,31 123.806,31 L148.192375,31 C148.63275,31 149,30.636 149,30.1875 C149,29.752 148.63925,29.375 148.194,29.375 Z" id="Path"></path>
                    </g>
                </g>
            </g>
        </g>
    </g>
</svg>