<?xml version="1.0" standalone="no"?><!DOCTYPE svg PUBLIC "-//W3C//DTD SVG 1.1//EN" "http://www.w3.org/Graphics/SVG/1.1/DTD/svg11.dtd"><svg class="icon" width="42px" height="42.00px" viewBox="0 0 1024 1024" version="1.1" xmlns="http://www.w3.org/2000/svg"><path d="M999.109 878.434l-244.972-245.13c-2.915-2.835-6.066-4.962-8.98-7.325A405.189 405.189 0 0 0 405.347 0a405.346 405.346 0 0 0 0 810.614A403.22 403.22 0 0 0 626.056 745c2.364 3.151 4.49 6.066 7.326 8.98l244.973 245.13c16.699 16.62 38.597 24.891 60.416 24.891s43.56-8.27 60.337-24.891a85.465 85.465 0 0 0 0-120.675M405.346 682.693c-152.812 0-277.267-124.455-277.267-277.347 0-152.89 124.455-277.267 277.267-277.267s277.268 124.455 277.268 277.267S558.16 682.693 405.346 682.693" fill="#94DCD7" /></svg>