<?xml version="1.0" encoding="UTF-8"?>
<svg width="39px" height="48px" viewBox="0 0 39 48" version="1.1" xmlns="http://www.w3.org/2000/svg" xmlns:xlink="http://www.w3.org/1999/xlink">
    <!-- Generator: Sketch 50.2 (55047) - http://www.bohemiancoding.com/sketch -->
    <title>切换账号</title>
    <desc>Created with Sketch.</desc>
    <defs></defs>
    <g id="Page-1" stroke="none" stroke-width="1" fill="none" fill-rule="evenodd">
        <g id="boss-绩效总览-切换角色" transform="translate(-684.000000, -1184.000000)" fill="#52C9C2" fill-rule="nonzero" stroke="#52C9C2" stroke-width="2">
            <g id="回到顶部" transform="translate(666.000000, 1169.000000)">
                <g id="搜索" transform="translate(19.000000, 16.000000)">
                    <g id="放大镜-2">
                        <g id="切换账号">
                            <path d="M28.1349325,27.2501318 C28.2811422,27.0063392 28.3270939,26.7121067 28.2602551,26.4346875 C28.1934163,26.1572683 28.0179647,25.917679 27.7756742,25.7705627 C26.5224478,25.0055583 25.1814956,24.40028 23.7820595,23.9589313 C27.951126,21.9035072 30.8335466,17.6035095 30.8335466,12.6267771 C30.8335466,5.66607708 25.2065601,0 18.284573,0 C11.3667634,0 5.73559945,5.66607708 5.73559945,12.6267771 C5.73559945,17.5993062 8.61802014,21.8993038 12.7829092,23.9547279 C5.38051865,26.3127912 0,33.2861012 0,41.5035943 C0,42.0962626 0.480403435,42.5796445 1.06941985,42.5796445 C1.65843627,42.5796445 2.13883971,42.0962626 2.13883971,41.5035943 C2.13883971,32.5421133 9.38248822,25.2535542 18.2887505,25.2535542 C21.2505422,25.2535542 24.1496725,26.0689986 26.6686576,27.6074141 C27.1699481,27.9184599 27.8258033,27.7545304 28.1349325,27.2501318 Z M7.87443916,12.6267771 C7.87443916,6.85141367 12.5447962,2.15210049 18.284573,2.15210049 C24.0243499,2.15210049 28.6947069,6.85141367 28.6947069,12.6267771 C28.6947069,18.4021405 24.0243499,23.1014538 18.284573,23.1014537 C12.5447962,23.1014537 7.87443916,18.4021405 7.87443916,12.6267771 Z M36.6793553,33.9078023 L32.6773857,29.9608836 C32.4058533,29.6876677 32.0089983,29.5783813 31.6372078,29.6834644 C31.2654173,29.7843441 30.9771752,30.0827799 30.885272,30.4568755 C30.7933687,30.8309711 30.9061591,31.2302866 31.1860463,31.4992992 L33.3207086,33.6009598 L22.4719455,33.6009598 C21.8829291,33.6009598 21.4025256,34.0843417 21.4025256,34.67701 C21.4025256,35.2696784 21.8829291,35.7530603 22.4719455,35.7530603 L35.9315969,35.7530603 C36.3660487,35.7530603 36.7545489,35.488251 36.9216458,35.0847322 C37.0845652,34.67701 36.9884845,34.2104414 36.6793553,33.9078023 Z M35.2966289,39.9009575 L23.3032523,39.9009575 C22.9857683,39.5226586 22.4510584,39.4091689 22.0082517,39.6319449 C21.5654451,39.8547209 21.3356869,40.3549161 21.4484772,40.8382981 C21.5612676,41.32168 21.9873646,41.6663524 22.4844778,41.6663524 L25.7553986,45.6132711 C25.9350277,45.8318438 26.1982053,45.9705534 26.4780925,45.9957733 C26.7621571,46.0209933 27.0420444,45.9327235 27.2592703,45.7477774 C27.4764962,45.5670346 27.6143511,45.3022253 27.6394156,45.0163995 C27.6644802,44.7305736 27.5767543,44.4489511 27.3971252,44.2303784 L25.5883018,42.0488546 L35.2966289,42.0488546 C35.873113,42.0320413 36.3326293,41.5528627 36.3326293,40.9728044 C36.3326293,40.3927461 35.873113,39.9177707 35.2966289,39.9009575 Z" id="Shape"></path>
                        </g>
                    </g>
                </g>
            </g>
        </g>
    </g>
</svg>