<?xml version="1.0" encoding="UTF-8"?>
<svg width="51px" height="45px" viewBox="0 0 51 45" version="1.1" xmlns="http://www.w3.org/2000/svg" xmlns:xlink="http://www.w3.org/1999/xlink">
    <!-- Generator: Sketch 50.2 (55047) - http://www.bohemiancoding.com/sketch -->
    <title>Shape</title>
    <desc>Created with Sketch.</desc>
    <defs></defs>
    <g id="Page-1" stroke="none" stroke-width="1" fill="none" fill-rule="evenodd">
        <g id="搜索对象-copy" transform="translate(-679.000000, -1067.000000)" fill="#73D2CC" fill-rule="nonzero" stroke="#73D2CC" stroke-width="2">
            <g id="回到顶部" transform="translate(665.000000, 1052.000000)">
                <g id="搜索" transform="translate(15.000000, 16.000000)">
                    <g id="返回顶部-(3)">
                        <path d="M25.4674315,0.42344929 C25.2110815,0.152237673 24.8629478,0 24.5,0 C24.1370522,0 23.7891118,0.152237673 23.5324397,0.42344929 L13.5618407,10.9532216 C13.0275635,11.5174806 13.0275635,12.4324031 13.5618407,12.9966621 C14.09644,13.5610571 14.9625553,13.5610571 15.4968326,12.9966621 L24.5,3.48860994 L33.5025233,12.9966621 C33.769823,13.2789616 34.120211,13.4201114 34.4702769,13.4201114 C34.8203428,13.4201114 35.1707308,13.2789616 35.4380304,12.9966621 C35.9723077,12.4324031 35.9723077,11.5174806 35.4380304,10.9532216 L25.4674315,0.42344929 Z M0,27.2193884 L5.85270293,27.2193884 L5.85270293,42.999864 L8.58914282,42.999864 L8.58914282,27.2193884 L14.4418458,27.2193884 L14.4418458,24.3297296 L0,24.3297296 L0,27.2193884 Z M28.5342924,24.3297977 L21.2851259,24.3297977 C20.4099933,24.3297977 19.5344743,24.682502 18.8667404,25.3875706 C18.1986845,26.0929793 17.8648498,27.0174252 17.8648498,27.9422113 L17.8648498,39.3872463 C17.8648498,40.3120323 18.1986201,41.2364783 18.8667404,41.941887 C19.5344743,42.6472957 20.4099933,43 21.2851259,43 L28.534228,43 C29.4095538,43 30.2852017,42.6472957 30.9531288,41.941887 C31.6210559,41.2364783 31.9546974,40.3120323 31.9546974,39.3872463 L31.9546974,27.9424833 C31.9546974,27.0173572 31.6210559,26.0932514 30.9531288,25.3875026 C30.2852017,24.682502 29.4096182,24.3297977 28.5342924,24.3297977 Z M29.2185795,39.3871783 C29.2185795,39.5239065 29.1831542,39.7235569 29.0182658,39.8983785 C28.8527332,40.0732001 28.6633692,40.1099331 28.534228,40.1099331 L21.2851259,40.1099331 C21.1559848,40.1099331 20.9672648,40.0732001 20.8017322,39.8983785 C20.6361997,39.7235569 20.6012897,39.5239065 20.6012897,39.3871783 L20.6012897,27.9424833 C20.6012897,27.8057551 20.6361997,27.6061048 20.8017322,27.4312831 C20.9672648,27.2564615 21.1559848,27.2193884 21.2851259,27.2193884 L28.534228,27.2193884 C28.6633692,27.2193884 28.8527332,27.2564615 29.0176217,27.4312831 C29.1831542,27.6061048 29.2185795,27.8057551 29.2185795,27.9424833 L29.2185795,39.3871783 Z M47.9981094,25.3875026 C47.3301823,24.6827741 46.4545344,24.3297296 45.5792086,24.3297296 L36.197635,24.3297296 L36.197635,42.999864 L38.9337529,42.999864 L38.9337529,34.8111369 L45.5792086,34.8111369 C46.4548565,34.8111369 47.3301823,34.4584326 47.9981094,33.7530239 C48.6660365,33.0476152 49,32.1231693 49,31.1987234 L49,27.9420752 C49,27.0173572 48.6660365,26.0932514 47.9981094,25.3875026 Z M46.2635601,31.1987914 C46.2635601,31.3351795 46.2287789,31.5348299 46.0632464,31.7096515 C45.8977138,31.8844731 45.7083498,31.9212061 45.5795306,31.9212061 L38.934397,31.9212061 L38.934397,27.2193884 L45.5795306,27.2193884 C45.7086718,27.2193884 45.8977138,27.2564615 46.0632464,27.4312831 C46.2287789,27.6061048 46.2635601,27.8057551 46.2635601,27.9424833 L46.2635601,31.1987914 Z" id="Shape"></path>
                    </g>
                </g>
            </g>
        </g>
    </g>
</svg>